<?xml version="1.0" encoding="utf-8"?>
<!-- Generator: Adobe Illustrator 23.0.1, SVG Export Plug-In . SVG Version: 6.00 Build 0)  -->
<svg version="1.1" id="Capa_1" xmlns="http://www.w3.org/2000/svg" xmlns:xlink="http://www.w3.org/1999/xlink" x="0px" y="0px"
	 viewBox="0 0 400 300" style="enable-background:new 0 0 400 300;" xml:space="preserve">
<style type="text/css">
	.st0{fill:#B416C1;}
	.st1{fill:#A50DB2;}
</style>
<g>
	<ellipse class="st0" cx="83.5" cy="81" rx="42" ry="45.5"/>
	<path class="st1" d="M83.5,36c22.9,0,41.5,20.2,41.5,45s-18.6,45-41.5,45S42,105.8,42,81S60.6,36,83.5,36 M83.5,35
		C60,35,41,55.6,41,81s19,46,42.5,46S126,106.4,126,81S107,35,83.5,35L83.5,35z"/>
</g>
<g>
	<ellipse class="st0" cx="305.5" cy="94" rx="45" ry="48.5"/>
	<path class="st1" d="M305.5,46C330,46,350,67.5,350,94s-20,48-44.5,48S261,120.5,261,94S281,46,305.5,46 M305.5,45
		C280.4,45,260,66.9,260,94s20.4,49,45.5,49S351,121.1,351,94S330.6,45,305.5,45L305.5,45z"/>
</g>
<g>
	<ellipse class="st0" cx="142" cy="253.5" rx="48.5" ry="48"/>
	<path class="st1" d="M142,206c26.5,0,48,21.3,48,47.5S168.5,301,142,301s-48-21.3-48-47.5S115.5,206,142,206 M142,205
		c-27.1,0-49,21.7-49,48.5s21.9,48.5,49,48.5s49-21.7,49-48.5S169.1,205,142,205L142,205z"/>
</g>
<g>
	<ellipse class="st0" cx="212.5" cy="149" rx="49" ry="49.5"/>
	<path class="st1" d="M212.5,100c26.7,0,48.5,22,48.5,49s-21.8,49-48.5,49S164,176,164,149S185.8,100,212.5,100 M212.5,99
		c-27.3,0-49.5,22.4-49.5,50s22.2,50,49.5,50s49.5-22.4,49.5-50S239.8,99,212.5,99L212.5,99z"/>
</g>
<g>
	<ellipse class="st0" cx="339.5" cy="248.5" rx="41" ry="43"/>
	<path class="st1" d="M339.5,206c22.3,0,40.5,19.1,40.5,42.5S361.8,291,339.5,291S299,271.9,299,248.5S317.2,206,339.5,206
		 M339.5,205c-22.9,0-41.5,19.5-41.5,43.5s18.6,43.5,41.5,43.5s41.5-19.5,41.5-43.5S362.4,205,339.5,205L339.5,205z"/>
</g>
<g>
	<ellipse class="st0" cx="46" cy="183" rx="25.5" ry="29.5"/>
	<path class="st1" d="M46,154c13.8,0,25,13,25,29s-11.2,29-25,29s-25-13-25-29S32.2,154,46,154 M46,153c-14.4,0-26,13.4-26,30
		s11.6,30,26,30s26-13.4,26-30S60.4,153,46,153L46,153z"/>
</g>
<g>
	<ellipse class="st0" cx="189.5" cy="46.5" rx="15" ry="17"/>
	<path class="st1" d="M189.5,30c8,0,14.5,7.4,14.5,16.5S197.5,63,189.5,63S175,55.6,175,46.5S181.5,30,189.5,30 M189.5,29
		c-8.6,0-15.5,7.8-15.5,17.5S180.9,64,189.5,64S205,56.2,205,46.5S198.1,29,189.5,29L189.5,29z"/>
</g>
<g>
	<ellipse class="st0" cx="371.5" cy="38" rx="16" ry="15.5"/>
	<path class="st1" d="M371.5,23c8.5,0,15.5,6.7,15.5,15s-7,15-15.5,15S356,46.3,356,38S363,23,371.5,23 M371.5,22
		c-9.1,0-16.5,7.2-16.5,16s7.4,16,16.5,16S388,46.8,388,38S380.6,22,371.5,22L371.5,22z"/>
</g>
</svg>
